<svg xmlns="http://www.w3.org/2000/svg" xmlns:xlink="http://www.w3.org/1999/xlink" width="50" height="51" viewBox="0 0 50 51">
    <defs>
        <path id="b" d="M0 0h48v48H0z"/>
        <filter id="a" width="110.4%" height="112.5%" x="-5.2%" y="-3.1%" filterUnits="objectBoundingBox">
            <feOffset dy="2" in="SourceAlpha" result="shadowOffsetOuter1"/>
            <feGaussianBlur in="shadowOffsetOuter1" result="shadowBlurOuter1" stdDeviation=".5"/>
            <feComposite in="shadowBlurOuter1" in2="SourceAlpha" operator="out" result="shadowBlurOuter1"/>
            <feColorMatrix in="shadowBlurOuter1" values="0 0 0 0 0 0 0 0 0 0 0 0 0 0 0 0 0 0 0.03 0"/>
        </filter>
    </defs>
    <g fill="none" fill-rule="evenodd">
        <g transform="translate(1)">
            <use fill="#000" filter="url(#a)" xlink:href="#b"/>
            <path fill="#FFF" stroke="#E4E5EC" stroke-linejoin="square" d="M.5.5h47v47H.5z"/>
        </g>
        <path fill="#A7ABBD" fill-rule="nonzero" d="M25 16c-4.4 0-8 3.6-8 8 0 3.4 2.1 6.3 5.1 7.4-.1-.6-.1-1.6 0-2.3.1-.6.9-4 .9-4s-.2-.4-.2-1.1c0-1.1.7-2 1.5-2 .7 0 1 .5 1 1.1 0 .7-.4 1.7-.7 2.7-.2.8.4 1.4 1.2 1.4 1.4 0 2.5-1.5 2.5-3.7 0-1.9-1.4-3.3-3.3-3.3-2.3 0-3.6 1.7-3.6 3.5 0 .7.3 1.4.6 1.8v.4c-.1.3-.2.8-.2.9 0 .1-.1.2-.3.1-1-.5-1.6-1.9-1.6-3.1 0-2.5 1.8-4.8 5.3-4.8 2.8 0 4.9 2 4.9 4.6 0 2.8-1.7 5-4.2 5-.8 0-1.6-.4-1.8-.9 0 0-.4 1.5-.5 1.9-.2.7-.7 1.6-1 2.1.8.2 1.6.3 2.4.3 4.4 0 8-3.6 8-8s-3.6-8-8-8z"/>
    </g>
</svg>
