<svg xmlns="http://www.w3.org/2000/svg" width="688" height="172" viewBox="0 0 688 172">
    <g fill="#7A1942" fill-rule="evenodd">
        <path d="M496 126.401c0 .434-.164.76-.493.976l-7.388 2.927c-1.094.434-2.49 1.001-4.187 1.707a79.307 79.307 0 0 1-5.499 2.033 96.877 96.877 0 0 1-5.748 1.706c-1.86.487-3.5.731-4.924.731-2.299 0-3.448-.704-3.448-2.113 0-.434.08-1.004.245-1.708.164-.704.52-1.435 1.068-2.194-.875.65-2.079 1.382-3.611 2.194a51.32 51.32 0 0 1-4.926 2.276 62.07 62.07 0 0 1-5.336 1.87c-1.806.542-3.422.814-4.845.814-2.08 0-3.584-.407-4.515-1.22-.929-.813-1.395-1.815-1.395-3.007 0-2.06 1.094-4.606 3.283-7.642 2.19-3.035 4.98-5.935 8.374-8.698a56.242 56.242 0 0 1 11.165-7.072c4.05-1.951 7.936-2.927 11.657-2.927 1.861 0 3.174.325 3.94.976.767.596 1.15 1.463 1.15 2.602 0 1.733-.795 3.305-2.381 4.713-1.588 1.41-3.093 2.547-4.515 3.415-.437.217-.766.325-.986.325-.218 0-.52-.136-.902-.407-.384-.27-.575-.623-.575-1.056 0-.542.438-1.355 1.313-2.44.438-.433.958-1.056 1.56-1.868.602-.814.903-1.49.903-2.033 0-.433-.192-.785-.575-1.057-.383-.27-1.175-.406-2.38-.406-1.86 0-4.16.678-6.896 2.059a42.59 42.59 0 0 0-7.88 5.068c-2.517 2.004-4.68 4.118-6.486 6.313-1.806 2.167-2.709 4.092-2.709 5.718 0 1.192.492 2.113 1.477 2.71.986.595 2.08.893 3.285.893 1.204 0 2.572-.27 4.104-.812a54.513 54.513 0 0 0 4.433-1.788 36.14 36.14 0 0 0 3.858-2.033c1.149-.704 1.889-1.22 2.217-1.545l.986-.976c.438-.433.875-.65 1.313-.65.218 0 .547.109.984.325.44.217.658.596.658 1.139-.549.868-.931 1.627-1.15 2.276-.219.65-.328 1.247-.328 1.79 0 1.408.985 2.112 2.955 2.112 1.204 0 2.544-.19 4.022-.569a68.425 68.425 0 0 0 4.433-1.301 84.398 84.398 0 0 0 4.104-1.463c1.26-.488 2.218-.84 2.875-1.056l4.924-1.952a15.259 15.259 0 0 1 1.97-.813c.22 0 .412.135.576.407.165.27.246.514.246.731m-48.106.163c0-.217-.082-.46-.246-.731-.164-.272-.356-.408-.576-.408a65.276 65.276 0 0 1-7.387 2.927c-2.19.759-4.652 1.464-7.388 2.114a36.08 36.08 0 0 1-8.374.976c-2.08 0-3.53-.3-4.35-.895-.821-.597-1.233-1.381-1.233-2.356 0-1.084.412-2.278 1.233-3.578a35.43 35.43 0 0 1 2.872-3.902 29.957 29.957 0 0 1 3.449-3.495c1.203-1.03 2.188-1.816 2.954-2.359 1.204-.324 1.806-1.192 1.806-2.6 0-.433-.164-.84-.492-1.22-.328-.38-.657-.568-.985-.568a31.613 31.613 0 0 1-4.186 1.057c-1.478.27-2.929.486-4.352.65-1.422.162-2.681.244-3.776.244H414.4c-1.75 0-2.9-.055-3.448-.163-.546-.11-.82-.217-.82-.325 0-.108.246-.406.739-.894a54.549 54.549 0 0 1 1.723-1.626c.657-.596 1.287-1.165 1.889-1.707a43.418 43.418 0 0 0 1.231-1.138c.438-.433.656-.921.656-1.464 0-.542-.109-1.057-.329-1.544-.218-.488-.655-.731-1.313-.731-.984 0-2.298.433-3.94 1.3a36.224 36.224 0 0 0-4.843 3.088c-1.588 1.193-2.956 2.494-4.105 3.902-1.15 1.41-1.724 2.602-1.724 3.577.11.325.384.705.821 1.138.438.326 1.066.624 1.888.895.821.27 1.999.406 3.53.406-.875 1.192-2.517 2.601-4.925 4.227-2.408 1.625-5.2 3.143-8.373 4.552-.657.326-1.396.651-2.217.976-.82.326-1.668.651-2.545.977-.218.108-.328.378-.328.812 0 .217.082.46.245.731.165.27.356.407.576.407a39.753 39.753 0 0 1 2.873-1.138c.93-.326 1.778-.65 2.545-.975.657-.326 1.724-.868 3.201-1.627a87.191 87.191 0 0 0 4.68-2.602 46.741 46.741 0 0 0 4.678-3.17c1.479-1.137 2.546-2.194 3.203-3.17a201.06 201.06 0 0 0 8.62-.812c2.79-.326 4.57-.543 5.335-.651-.548.217-1.45.949-2.708 2.194a52.434 52.434 0 0 0-3.86 4.31 35.033 35.033 0 0 0-3.448 5.12c-.984 1.789-1.477 3.388-1.477 4.769 0 2.304 1.641 3.605 4.926 3.93 2.627 0 5.664-.433 9.112-1.328a172.473 172.473 0 0 0 9.932-2.899 126.562 126.562 0 0 0 11-4.227c.33-.217.494-.543.494-.976m-52.867-.163c0 .434-.164.76-.493.976l-7.388 2.927c-1.094.434-2.49 1.001-4.187 1.707a79.057 79.057 0 0 1-5.499 2.033 97.137 97.137 0 0 1-5.746 1.706c-1.861.487-3.503.731-4.928.731-2.298 0-3.447-.704-3.447-2.113 0-.434.083-1.004.247-1.708.163-.704.52-1.435 1.066-2.194-.875.65-2.08 1.382-3.612 2.194a51.32 51.32 0 0 1-4.926 2.276 62.043 62.043 0 0 1-5.334 1.87c-1.806.542-3.422.814-4.845.814-2.08 0-3.583-.407-4.515-1.22-.929-.813-1.395-1.815-1.395-3.007 0-2.06 1.094-4.606 3.284-7.642 2.188-3.035 4.98-5.935 8.373-8.698a56.232 56.232 0 0 1 11.164-7.072c4.05-1.951 7.937-2.927 11.658-2.927 1.861 0 3.174.325 3.94.976.767.596 1.15 1.463 1.15 2.602 0 1.733-.795 3.305-2.381 4.713-1.588 1.41-3.091 2.547-4.515 3.415-.437.217-.766.325-.984.325-.22 0-.522-.136-.904-.407-.383-.27-.575-.623-.575-1.056 0-.542.438-1.355 1.315-2.44.437-.433.956-1.056 1.558-1.868.602-.814.905-1.49.905-2.033 0-.433-.194-.785-.576-1.057-.384-.27-1.176-.406-2.38-.406-1.861 0-4.16.678-6.898 2.059a42.633 42.633 0 0 0-7.88 5.068c-2.517 2.004-4.68 4.118-6.484 6.313-1.807 2.167-2.71 4.092-2.71 5.718 0 1.192.493 2.113 1.477 2.71.986.595 2.08.893 3.283.893 1.206 0 2.573-.27 4.106-.812a54.483 54.483 0 0 0 4.432-1.788 36.166 36.166 0 0 0 3.859-2.033c1.15-.704 1.887-1.22 2.216-1.545l.986-.976c.439-.433.876-.65 1.314-.65.22 0 .547.109.986.325.437.217.656.596.656 1.139-.547.868-.931 1.627-1.15 2.276-.219.65-.328 1.247-.328 1.79 0 1.408.985 2.112 2.956 2.112 1.203 0 2.543-.19 4.022-.569a68.633 68.633 0 0 0 4.432-1.301 83.902 83.902 0 0 0 4.104-1.463c1.26-.488 2.218-.84 2.875-1.056l4.924-1.952a15.259 15.259 0 0 1 1.97-.813c.22 0 .41.135.575.407.164.27.247.514.247.731m-18.388-93.484c0 2.602-1.204 6.125-3.612 10.57-2.408 4.443-5.665 9.348-9.77 14.712-4.104 5.365-8.975 11.028-14.612 16.99-5.637 5.96-11.685 11.787-18.143 17.477a281.967 281.967 0 0 1-20.277 16.258c-7.059 5.149-14.037 9.564-20.933 13.25.329-5.311 2.08-11.3 5.255-17.965 3.174-6.666 7.196-13.494 12.067-20.485 4.87-6.99 10.316-13.82 16.336-20.485 6.02-6.665 12.013-12.6 17.979-17.802 5.965-5.203 11.629-9.403 16.992-12.6 5.363-3.198 9.797-4.796 13.3-4.796 3.612 0 5.418 1.625 5.418 4.876m7.716-2.763c0-4.011-2.681-6.015-8.045-6.015-4.925 0-10.672 1.76-17.24 5.284-6.567 3.521-13.326 8.129-20.276 13.819-6.95 5.69-13.764 12.193-20.441 19.509-6.677 7.316-12.67 14.767-17.978 22.355-5.309 7.587-9.578 14.985-12.807 22.192-3.228 7.208-4.843 13.576-4.843 19.103 0 3.794 1.04 6.884 3.12 9.268 2.08 2.384 5.035 3.577 8.866 3.577 2.408 0 4.925-.624 7.552-1.87 2.626-1.247 5.117-2.846 7.47-4.797a34.017 34.017 0 0 0 6.157-6.666c1.75-2.492 2.9-4.986 3.447-7.478h14.286c3.392 0 5.882.027 7.47.08 1.586.055 2.545.083 2.872.083h.657c1.313 0 2.517-.706 3.612-2.114.985-1.193 1.477-2.06 1.477-2.601 0-.434-.492-.651-1.477-.651h-9.851c-3.503 0-6.758-.027-9.768-.08-3.01-.056-5.583-.083-7.718-.083h-3.53c-.547 0-1.067.082-1.56.245-.491.163-.739.569-.739 1.22 0 .54.056 1.082.165 1.625.11.541.164 1.245.164 2.113 0 1.734-.492 3.577-1.477 5.528-.986 1.95-2.299 3.74-3.94 5.366a21.334 21.334 0 0 1-5.582 3.982c-2.081 1.03-4.215 1.545-6.404 1.545-2.298 0-4.296-.759-5.993-2.276-1.697-1.516-2.6-4.173-2.709-7.967 5.473-2.601 11.63-6.286 18.472-11.055 6.84-4.769 13.763-10.108 20.768-16.014a411.02 411.02 0 0 0 20.606-18.616c6.73-6.503 12.696-12.817 17.896-18.94 5.199-6.123 9.386-11.787 12.56-16.99 3.174-5.203 4.76-9.43 4.76-12.68m-99.986 96.41c0 .432-.165.758-.493.975a126.888 126.888 0 0 1-11.001 4.227 172.521 172.521 0 0 1-9.934 2.899c-3.447.895-6.484 1.328-9.112 1.328-3.283-.325-4.924-1.626-4.924-3.93 0-1.38.491-2.98 1.477-4.769a35.129 35.129 0 0 1 3.447-5.12c1.315-1.626 2.6-3.063 3.86-4.31 1.258-1.245 2.161-1.977 2.708-2.194-.766.108-2.545.325-5.336.65a201.26 201.26 0 0 1-8.62.813c-.657.976-1.724 2.033-3.201 3.17a46.63 46.63 0 0 1-4.68 3.17 86.673 86.673 0 0 1-4.68 2.602 278.544 278.544 0 0 1-3.2 1.627c-.767.325-1.615.65-2.545.975-.93.325-1.89.705-2.873 1.138-.22 0-.41-.136-.575-.407-.164-.27-.247-.514-.247-.731 0-.434.11-.704.329-.812a125.2 125.2 0 0 0 2.544-.977c.822-.325 1.56-.65 2.217-.976 3.174-1.41 5.965-2.927 8.374-4.552 2.408-1.626 4.05-3.035 4.926-4.227-1.533 0-2.71-.136-3.53-.406-.822-.271-1.451-.57-1.889-.895-.438-.433-.712-.813-.821-1.138 0-.975.575-2.167 1.724-3.577 1.15-1.408 2.518-2.71 4.104-3.902a36.308 36.308 0 0 1 4.844-3.088c1.643-.867 2.956-1.3 3.94-1.3.657 0 1.095.243 1.314.731.218.487.329 1.002.329 1.544 0 .543-.22 1.03-.657 1.464-.218.216-.63.596-1.232 1.138-.602.542-1.231 1.111-1.887 1.707a54.712 54.712 0 0 0-1.724 1.626c-.493.488-.74.786-.74.894 0 .108.274.216.821.325.548.108 1.697.163 3.449.163h2.461c1.095 0 2.354-.082 3.778-.245a65.358 65.358 0 0 0 4.35-.65 31.613 31.613 0 0 0 4.186-1.056c.329 0 .657.189.986.569.328.378.493.786.493 1.22 0 1.407-.602 2.275-1.807 2.6-.765.542-1.751 1.328-2.955 2.358a29.844 29.844 0 0 0-3.447 3.495 35.278 35.278 0 0 0-2.873 3.902c-.822 1.3-1.232 2.494-1.232 3.578 0 .975.41 1.76 1.232 2.356.82.596 2.27.895 4.35.895 2.845 0 5.637-.325 8.373-.976 2.737-.65 5.2-1.355 7.388-2.114a65.201 65.201 0 0 0 7.39-2.927c.219 0 .41.136.573.408.165.27.248.514.248.731m-52.868-.163c0-.217-.083-.46-.248-.731-.164-.272-.354-.407-.574-.407-.656.217-1.313.488-1.97.813l-4.925 1.952a63.12 63.12 0 0 0-2.873 1.056c-1.259.488-2.627.976-4.104 1.463a68.915 68.915 0 0 1-4.434 1.301c-1.478.379-2.819.569-4.023.569-1.97 0-2.954-.704-2.954-2.113 0-.542.109-1.138.328-1.79.218-.648.602-1.407 1.149-2.275 0-.543-.218-.922-.656-1.14-.439-.215-.767-.324-.986-.324-.437 0-.875.217-1.313.65l-.985.976c-.329.326-1.067.841-2.218 1.545a36.14 36.14 0 0 1-3.857 2.033c-1.423.65-2.9 1.246-4.433 1.788s-2.9.812-4.105.812c-1.204 0-2.298-.298-3.284-.894-.985-.596-1.477-1.517-1.477-2.71 0-1.625.902-3.55 2.708-5.717 1.806-2.195 3.968-4.309 6.486-6.313a42.59 42.59 0 0 1 7.881-5.068c2.736-1.38 5.035-2.059 6.896-2.059 1.204 0 1.998.135 2.38.406.383.272.575.624.575 1.057 0 .543-.301 1.22-.903 2.033-.602.812-1.123 1.435-1.56 1.869-.876 1.084-1.313 1.897-1.313 2.439 0 .433.192.786.574 1.056.384.271.685.407.903.407.22 0 .548-.108.986-.325 1.422-.868 2.928-2.005 4.514-3.415 1.588-1.408 2.382-2.98 2.382-4.713 0-1.14-.384-2.006-1.15-2.602-.766-.65-2.08-.976-3.94-.976-3.721 0-7.608.976-11.657 2.927a56.204 56.204 0 0 0-11.165 7.072c-3.394 2.763-6.184 5.663-8.373 8.698-2.19 3.036-3.285 5.583-3.285 7.642 0 1.192.467 2.194 1.396 3.006.93.814 2.435 1.221 4.516 1.221 1.422 0 3.037-.272 4.843-.813a62.228 62.228 0 0 0 5.336-1.87 51.47 51.47 0 0 0 4.926-2.277c1.533-.812 2.737-1.543 3.612-2.194-.548.759-.903 1.49-1.067 2.194-.165.704-.246 1.274-.246 1.708 0 1.41 1.149 2.113 3.447 2.113 1.424 0 3.065-.244 4.925-.731a96.877 96.877 0 0 0 5.747-1.706 78.809 78.809 0 0 0 5.5-2.033 272.017 272.017 0 0 1 4.187-1.707l7.388-2.927c.328-.217.493-.542.493-.976m-40.555 17.56c0 .757-.437 1.788-1.313 3.088-.875 1.302-1.97 1.951-3.283 1.951h-5.91c-3.613 0-8.237-.027-13.874-.082-5.637-.055-12.04-.08-19.21-.08-7.17 0-14.448-.028-21.836-.083-7.389-.054-14.64-.08-21.754-.08-7.116 0-13.492-.028-19.128-.082a2529.44 2529.44 0 0 1-13.873-.163c-3.612-.053-5.584-.134-5.912-.242-1.75-.325-2.627-.922-2.627-1.79 0-.541.494-1.3 1.478-2.275a30.762 30.762 0 0 1 1.477-1.383c.44-.379.905-.65 1.398-.812.491-.163 1.093-.27 1.805-.326.711-.054 1.67-.08 2.874-.08.655 0 2.625.026 5.91.08 3.283.055 7.223.082 11.82.082 4.598 0 9.632.054 15.105.163 5.474.108 10.727.163 15.762.163s9.578.026 13.627.08c4.05.054 7.005.081 8.866.081h.165c5.91-4.226 10.151-8.182 12.724-11.867 2.573-3.685 3.858-7.1 3.858-10.243 0-3.794-1.669-7.182-5.007-10.162-3.339-2.98-7.827-5.636-13.464-7.966-5.637-2.33-12.177-4.281-19.619-5.853-7.444-1.571-15.27-2.845-23.478-3.82-5.255 6.503-10.453 12.95-15.599 19.346a6804.514 6804.514 0 0 1-14.036 17.397c-4.215 5.202-7.663 9.456-10.344 12.762-2.683 3.306-4.132 5.067-4.352 5.284l-.82.814c-.548.54-1.04.812-1.478.812-1.204 0-1.806-.542-1.806-1.626 0-.867.383-1.68 1.15-2.439.109-.108 1.422-1.733 3.94-4.876l9.768-12.194a3982.546 3982.546 0 0 0 13.464-16.908c4.98-6.288 9.987-12.627 15.022-19.023a363.544 363.544 0 0 0-16.992-1.22 350.805 350.805 0 0 0-16.83-.405c-1.422 0-2.135-.65-2.135-1.951 0-.325.028-.706.083-1.139.054-.433.301-.92.739-1.463.766-.976 1.833-1.545 3.202-1.707 1.368-.163 2.326-.244 2.873-.244h4.187c2.463 0 5.445.026 8.948.081 3.502.055 7.25.082 11.246.082h10.918c3.831-4.77 7.443-9.321 10.837-13.658a2854.76 2854.76 0 0 1 8.948-11.38c2.572-3.25 4.625-5.825 6.157-7.721 1.533-1.898 2.353-2.9 2.463-3.01.218-.323.793-.92 1.723-1.787.93-.867 1.834-1.3 2.709-1.3 1.423 0 2.134.596 2.134 1.788 0 1.192-.602 2.276-1.805 3.25-.11.11-.931 1.112-2.463 3.01a4814.643 4814.643 0 0 1-5.992 7.396 3174.118 3174.118 0 0 1-8.62 10.568c-3.284 4.01-6.732 8.292-10.345 12.844h.493c11.056 0 20.824-.759 29.308-2.276 8.483-1.518 15.597-3.523 21.343-6.016 5.748-2.493 10.098-5.338 13.052-8.535 2.956-3.197 4.434-6.477 4.434-9.836 0-3.468-1.614-6.91-4.844-10.323-3.229-3.415-8.154-6.45-14.775-9.105-6.623-2.657-14.942-4.796-24.957-6.423-10.015-1.626-21.81-2.439-35.382-2.439-11.165 0-22.136.65-32.92 1.952-10.78 1.3-20.384 3.251-28.813 5.852-8.428 2.601-15.242 5.799-20.441 9.593-5.2 3.793-7.8 8.183-7.8 13.17 0 1.842.439 3.278 1.315 4.307.875 1.03 1.834 1.87 2.873 2.52 1.04.65 1.998 1.138 2.873 1.464.876.324 1.313.65 1.313.975 0 1.084-.71 1.625-2.134 1.625-.656 0-1.533-.216-2.626-.65-1.095-.433-2.135-1.083-3.12-1.95-.985-.868-1.834-1.952-2.545-3.253C.357 62.995 0 61.423 0 59.582c0-5.962 2.792-11.22 8.373-15.77 5.582-4.554 12.944-8.374 22.083-11.464 9.14-3.088 19.484-5.419 31.03-6.99C73.035 23.786 84.774 23 96.704 23c14.668 0 27.364.868 38.091 2.602 10.726 1.734 19.565 4.064 26.517 6.991 6.95 2.926 12.094 6.232 15.432 9.917 3.338 3.686 5.008 7.478 5.008 11.382 0 4.117-1.779 8.155-5.336 12.111-3.558 3.956-8.756 7.506-15.597 10.649-6.841 3.143-15.242 5.69-25.203 7.64-9.96 1.953-21.288 2.927-33.986 2.927-.439.434-.712.76-.821.977.657 0 2.709.243 6.156.731 3.449.488 7.608 1.22 12.48 2.194 4.87.976 10.07 2.277 15.596 3.903 5.528 1.626 10.645 3.603 15.351 5.934 4.707 2.33 8.593 5.094 11.658 8.291 3.064 3.197 4.598 6.91 4.598 11.137 0 3.035-.932 6.34-2.792 9.918-1.861 3.577-5.035 7.424-9.522 11.543l-.329.324c0 .11.165.19.492.244.328.054.657.082.986.082H170.915c2.627 0 5.144.027 7.552.08 2.41.055 4.544.11 6.404.163 1.86.055 3.12.082 3.776.082a73.33 73.33 0 0 1 1.56.325c.492.108.738.38.738.814M680.098 44.343c0-6.083-1.115-11.526-3.342-16.329-2.228-4.803-5.217-8.884-8.966-12.245-3.751-3.363-8.124-5.923-13.124-7.684-5-1.762-10.271-2.643-15.814-2.643-6.523 0-12.69.801-18.505 2.402-5.814 1.602-11.167 3.79-16.059 6.564a71.528 71.528 0 0 0-13.45 9.845c-4.076 3.788-7.69 7.87-10.841 12.246 2.609-.961 4.864-1.654 6.765-2.081 1.902-.427 3.126-.64 3.669-.64.979 0 1.468.32 1.468.96 0 .854-.598 1.28-1.794 1.28-.87 0-2.419.294-4.647.881-2.227.587-4.809 1.521-7.743 2.801-4.13 6.404-7.256 12.995-9.375 19.771-2.12 6.776-3.178 13.26-3.178 19.45 0 1.28.026 2.294.08 3.041.056.747.11 1.388.164 1.921.053.533.108 1.04.163 1.521.054.48.082 1.04.082 1.682 0 .96-.49 1.627-1.468 2-.978.374-1.902.561-2.77.561-.871 0-1.522-.347-1.957-1.04-.435-.695-.76-1.6-.979-2.722-.216-1.121-.354-2.375-.408-3.763-.054-1.386-.08-2.774-.08-4.162 0-5.549.95-11.178 2.852-16.888 1.901-5.71 4.592-11.286 8.07-16.729-3.043 1.921-6.06 4.19-9.048 6.803-2.99 2.616-5.678 5.684-8.07 9.205-2.393 3.522-4.32 7.471-5.789 11.846-1.466 4.377-2.2 9.232-2.2 14.568 0 5.87 1.005 11.153 3.016 15.848 2.011 4.696 4.89 8.645 8.641 11.846 3.75 3.202 8.287 5.657 13.613 7.364 5.327 1.707 11.304 2.561 17.934 2.561 2.608 0 5.216-.16 7.825-.48-1.413-4.162-2.528-8.645-3.342-13.447-.816-4.801-1.223-9.925-1.223-15.367 0-2.454.11-4.67.326-6.643.218-1.975.435-3.71.653-5.203.326-1.708.652-3.256.977-4.643.218-.855.788-1.548 1.712-2.081.924-.533 1.82-.801 2.69-.801.761 0 1.414.32 1.956.961.545.64.816 1.28.816 1.92 0 .534-.163 1.227-.49 2.082-.217 1.174-.489 2.988-.815 5.443-.325 2.455-.488 5.39-.488 8.805 0 5.23.462 10.139 1.386 14.726.924 4.59 2.145 8.912 3.667 12.968 6.304-1.282 12.609-3.282 18.912-6.003a110.912 110.912 0 0 0 18.016-9.845 118.932 118.932 0 0 0 15.976-12.887c4.945-4.75 9.24-9.819 12.879-15.209 3.641-5.388 6.495-10.99 8.56-16.808 2.065-5.816 3.097-11.658 3.097-17.529m7.174-7.844c0 9.498-2.309 19.024-6.93 28.575-4.619 9.552-10.76 18.436-18.421 26.654-7.662 8.217-16.493 15.422-26.493 21.61-10 6.19-20.434 10.62-31.303 13.288 2.827 6.403 6.114 12.06 9.865 16.97 3.75 4.908 7.307 9.044 10.677 12.405 3.37 3.361 6.223 5.976 8.56 7.844 2.336 1.867 3.506 2.962 3.506 3.282 0 .64-.409 1.574-1.223 2.803-.816 1.226-1.604 1.84-2.365 1.84-.326 0-1.874-.88-4.646-2.641-2.77-1.762-6.06-4.43-9.864-8.006-3.803-3.575-7.743-8.11-11.819-13.607-4.076-5.496-7.581-11.925-10.516-19.288a74.402 74.402 0 0 1-6.929.96 75.95 75.95 0 0 1-6.929.32c-5.869 0-11.085-.561-15.65-1.682-4.565-1.12-8.505-2.588-11.82-4.403-3.315-1.813-6.115-3.921-8.397-6.323-2.283-2.4-4.184-4.828-5.706-7.283-3.478-5.87-5.434-12.433-5.869-19.69 0-6.83 1.195-12.887 3.586-18.17 2.391-5.283 5.409-9.951 9.05-14.007 3.64-4.055 7.635-7.55 11.983-10.485 4.347-2.935 8.477-5.47 12.39-7.605 4.022-5.442 8.695-10.591 14.02-15.448a99.492 99.492 0 0 1 17.445-12.726c6.303-3.628 13.015-6.483 20.135-8.564A77.748 77.748 0 0 1 645.537 0c5.65 0 11.003.907 16.058 2.722 5.053 1.814 9.482 4.322 13.287 7.523 3.804 3.202 6.82 7.045 9.05 11.526 2.227 4.483 3.34 9.392 3.34 14.728"/>
    </g>
</svg>
