<svg xmlns="http://www.w3.org/2000/svg" xmlns:xlink="http://www.w3.org/1999/xlink"><defs><path id="a" d="M14.31 20.283L.704 6.46c-.94-.956-.94-2.5 0-3.446L2.965.717a2.364 2.364 0 0 1 3.392 0L16 10.515 25.643.717a2.364 2.364 0 0 1 3.391 0l2.26 2.297c.941.955.941 2.5 0 3.446L17.692 20.283a2.353 2.353 0 0 1-3.382 0z"/><path id="a" d="M14.31 20.283L.704 6.46c-.94-.956-.94-2.5 0-3.446L2.965.717a2.364 2.364 0 0 1 3.392 0L16 10.515 25.643.717a2.364 2.364 0 0 1 3.391 0l2.26 2.297c.941.955.941 2.5 0 3.446L17.692 20.283a2.353 2.353 0 0 1-3.382 0z"/><path id="b" d="M0 0h48v48H0z"/><filter id="a" width="110.4%" height="112.5%" x="-5.2%" y="-3.1%" filterUnits="objectBoundingBox"><feOffset dy="2" in="SourceAlpha" result="shadowOffsetOuter1"/><feGaussianBlur in="shadowOffsetOuter1" result="shadowBlurOuter1" stdDeviation=".5"/><feComposite in="shadowBlurOuter1" in2="SourceAlpha" operator="out" result="shadowBlurOuter1"/><feColorMatrix in="shadowBlurOuter1" values="0 0 0 0 0 0 0 0 0 0 0 0 0 0 0 0 0 0 0.03 0"/></filter><path id="b" d="M0 0h48v48H0z"/><filter id="a" width="110.4%" height="112.5%" x="-5.2%" y="-3.1%" filterUnits="objectBoundingBox"><feOffset dy="2" in="SourceAlpha" result="shadowOffsetOuter1"/><feGaussianBlur in="shadowOffsetOuter1" result="shadowBlurOuter1" stdDeviation=".5"/><feComposite in="shadowBlurOuter1" in2="SourceAlpha" operator="out" result="shadowBlurOuter1"/><feColorMatrix in="shadowBlurOuter1" values="0 0 0 0 0 0 0 0 0 0 0 0 0 0 0 0 0 0 0.03 0"/></filter><path id="b" d="M0 0h48v48H0z"/><filter id="a" width="110.4%" height="112.5%" x="-5.2%" y="-3.1%" filterUnits="objectBoundingBox"><feOffset dy="2" in="SourceAlpha" result="shadowOffsetOuter1"/><feGaussianBlur in="shadowOffsetOuter1" result="shadowBlurOuter1" stdDeviation=".5"/><feComposite in="shadowBlurOuter1" in2="SourceAlpha" operator="out" result="shadowBlurOuter1"/><feColorMatrix in="shadowBlurOuter1" values="0 0 0 0 0 0 0 0 0 0 0 0 0 0 0 0 0 0 0.03 0"/></filter><path id="b" d="M0 0h48v48H0z"/><filter id="a" width="110.4%" height="112.5%" x="-5.2%" y="-3.1%" filterUnits="objectBoundingBox"><feOffset dy="2" in="SourceAlpha" result="shadowOffsetOuter1"/><feGaussianBlur in="shadowOffsetOuter1" result="shadowBlurOuter1" stdDeviation=".5"/><feComposite in="shadowBlurOuter1" in2="SourceAlpha" operator="out" result="shadowBlurOuter1"/><feColorMatrix in="shadowBlurOuter1" values="0 0 0 0 0 0 0 0 0 0 0 0 0 0 0 0 0 0 0.03 0"/></filter></defs><symbol id="arrow-left" viewBox="0 0 21 32"><use fill="#7A1942" fill-rule="evenodd" transform="rotate(90 10.5 10.5)" xlink:href="#a"/></symbol><symbol id="arrow-right" viewBox="0 0 21 32"><use fill="#7A1942" fill-rule="evenodd" transform="matrix(0 1 1 0 0 0)" xlink:href="#a"/></symbol><symbol id="call-answer" viewBox="0 0 348.077 348.077"><path d="M340.273 275.083l-53.755-53.761c-10.707-10.664-28.438-10.34-39.518.744l-27.082 27.076a792.327 792.327 0 0 1-5.344-2.973c-17.102-9.476-40.509-22.464-65.14-47.113-24.704-24.701-37.704-48.144-47.209-65.257-1.003-1.813-1.964-3.561-2.913-5.221l18.176-18.149 8.936-8.947c11.097-11.1 11.403-28.826.721-39.521L73.39 8.194c-10.682-10.68-28.421-10.356-39.518.744l-15.15 15.237.414.411c-5.08 6.482-9.325 13.958-12.484 22.02C3.74 54.28 1.927 61.603 1.098 68.941-6 127.785 20.89 181.564 93.866 254.541c100.875 100.868 182.167 93.248 185.674 92.876 7.638-.913 14.958-2.738 22.397-5.627 7.992-3.122 15.463-7.361 21.941-12.43l.331.294 15.348-15.029c11.074-11.098 11.393-28.83.716-39.542z"/></symbol><symbol id="facebook" viewBox="0 0 50 51"><g fill="none" fill-rule="evenodd"><g transform="translate(1)"><use fill="#000" filter="url(#a)" xlink:href="#b"/><path fill="#FFF" stroke="#E4E5EC" stroke-linejoin="square" d="M.5.5h47v47H.5z"/></g><path fill="#A7ABBD" fill-rule="nonzero" d="M23.023 32L23 25h-3v-3h3v-2c0-2.7 1.672-4 4.08-4 1.153 0 2.144.086 2.433.124v2.821h-1.67c-1.31 0-1.563.623-1.563 1.536V22H30l-1 3h-2.72v7h-3.257z"/></g></symbol><symbol id="instagram" viewBox="0 0 50 51"><g fill="none" fill-rule="evenodd"><g transform="translate(1)"><use fill="#000" filter="url(#a)" xlink:href="#b"/><path fill="#FFF" stroke="#E4E5EC" stroke-linejoin="square" d="M.5.5h47v47H.5z"/></g><g fill="#A7ABBD" fill-rule="nonzero" transform="translate(17 16)"><circle cx="12.145" cy="3.892" r="1"/><path d="M8 12c-2.206 0-4-1.794-4-4s1.794-4 4-4 4 1.794 4 4-1.794 4-4 4zm0-6c-1.103 0-2 .897-2 2s.897 2 2 2 2-.897 2-2-.897-2-2-2z"/><path d="M12 16H4c-2.056 0-4-1.944-4-4V4c0-2.056 1.944-4 4-4h8c2.056 0 4 1.944 4 4v8c0 2.056-1.944 4-4 4zM4 2c-.935 0-2 1.065-2 2v8c0 .953 1.047 2 2 2h8c.935 0 2-1.065 2-2V4c0-.935-1.065-2-2-2H4z"/></g></g></symbol><symbol id="menu-icon" viewBox="0 0 18 14"><path fill="#986C79" fill-rule="evenodd" d="M0 0h18v2H0V0zm0 6h18v2H0V6zm0 6h11v2H0v-2z"/></symbol><symbol id="pinterest" viewBox="0 0 50 51"><g fill="none" fill-rule="evenodd"><g transform="translate(1)"><use fill="#000" filter="url(#a)" xlink:href="#b"/><path fill="#FFF" stroke="#E4E5EC" stroke-linejoin="square" d="M.5.5h47v47H.5z"/></g><path fill="#A7ABBD" fill-rule="nonzero" d="M25 16c-4.4 0-8 3.6-8 8 0 3.4 2.1 6.3 5.1 7.4-.1-.6-.1-1.6 0-2.3.1-.6.9-4 .9-4s-.2-.4-.2-1.1c0-1.1.7-2 1.5-2 .7 0 1 .5 1 1.1 0 .7-.4 1.7-.7 2.7-.2.8.4 1.4 1.2 1.4 1.4 0 2.5-1.5 2.5-3.7 0-1.9-1.4-3.3-3.3-3.3-2.3 0-3.6 1.7-3.6 3.5 0 .7.3 1.4.6 1.8v.4c-.1.3-.2.8-.2.9 0 .1-.1.2-.3.1-1-.5-1.6-1.9-1.6-3.1 0-2.5 1.8-4.8 5.3-4.8 2.8 0 4.9 2 4.9 4.6 0 2.8-1.7 5-4.2 5-.8 0-1.6-.4-1.8-.9 0 0-.4 1.5-.5 1.9-.2.7-.7 1.6-1 2.1.8.2 1.6.3 2.4.3 4.4 0 8-3.6 8-8s-3.6-8-8-8z"/></g></symbol><symbol id="search" viewBox="0 0 24 24"><path fill="#1A051D" d="M21.054 20.046a.713.713 0 0 1-1.008 1.008l-3.42-3.42a.713.713 0 0 1 1.008-1.008l3.42 3.42zM10.29 17.842a7.552 7.552 0 1 1 0-15.104 7.552 7.552 0 0 1 0 15.105zm0-1.424a6.128 6.128 0 1 0 0-12.256 6.128 6.128 0 0 0 0 12.256zM6.775 9.72a.475.475 0 1 1-.95 0A3.895 3.895 0 0 1 9.72 5.825a.475.475 0 1 1 0 .95A2.945 2.945 0 0 0 6.775 9.72z"/></symbol><symbol id="twitter" viewBox="0 0 50 51"><g fill="none" fill-rule="evenodd"><g transform="translate(1)"><use fill="#000" filter="url(#a)" xlink:href="#b"/><path fill="#FFF" stroke="#E4E5EC" stroke-linejoin="square" d="M.5.5h47v47H.5z"/></g><path fill="#A7ABBD" fill-rule="nonzero" d="M33 19c-.6.3-1.2.4-1.9.5.7-.4 1.2-1 1.4-1.8-.6.4-1.3.6-2.1.8-.6-.6-1.5-1-2.4-1-1.7 0-3.2 1.5-3.2 3.3 0 .3 0 .5.1.7-2.7-.1-5.2-1.4-6.8-3.4-.3.5-.4 1-.4 1.7 0 1.1.6 2.1 1.5 2.7-.5 0-1-.2-1.5-.4 0 1.6 1.1 2.9 2.6 3.2-.3.1-.6.1-.9.1-.2 0-.4 0-.6-.1.4 1.3 1.6 2.3 3.1 2.3-1.1.9-2.5 1.4-4.1 1.4H17c1.5.9 3.2 1.5 5 1.5 6 0 9.3-5 9.3-9.3v-.4c.7-.5 1.3-1.1 1.7-1.8z"/></g></symbol></svg>